<mxfile host="app.diagrams.net" modified="2020-10-09T19:31:52.226Z" agent="5.0 (Windows NT 6.1; Win64; x64) AppleWebKit/537.36 (KHTML, like Gecko) Chrome/85.0.4183.121 Safari/537.36 Edg/85.0.564.70" etag="15sbDW_rTRrvVbLtYV9e" version="13.7.9" type="github">
  <diagram id="C5RBs43oDa-KdzZeNtuy" name="Page-1">
    <mxGraphModel dx="630" dy="337" grid="1" gridSize="10" guides="1" tooltips="1" connect="1" arrows="1" fold="1" page="1" pageScale="1" pageWidth="1169" pageHeight="827" math="0" shadow="0">
      <root>
        <mxCell id="WIyWlLk6GJQsqaUBKTNV-0" />
        <mxCell id="WIyWlLk6GJQsqaUBKTNV-1" parent="WIyWlLk6GJQsqaUBKTNV-0" />
        <mxCell id="rxmNv4YafPhZ3EjZMaK0-21" style="edgeStyle=orthogonalEdgeStyle;rounded=0;orthogonalLoop=1;jettySize=auto;html=1;entryX=0.5;entryY=0.981;entryDx=0;entryDy=0;entryPerimeter=0;" parent="WIyWlLk6GJQsqaUBKTNV-1" source="rxmNv4YafPhZ3EjZMaK0-14" target="rxmNv4YafPhZ3EjZMaK0-13" edge="1">
          <mxGeometry relative="1" as="geometry" />
        </mxCell>
        <mxCell id="rxmNv4YafPhZ3EjZMaK0-10" value="DENTE&#xa;" style="swimlane;fontStyle=1;align=center;verticalAlign=top;childLayout=stackLayout;horizontal=1;startSize=26;horizontalStack=0;resizeParent=1;resizeParentMax=0;resizeLast=0;collapsible=1;marginBottom=0;" parent="WIyWlLk6GJQsqaUBKTNV-1" vertex="1">
          <mxGeometry x="200" y="140" width="160" height="114" as="geometry">
            <mxRectangle x="180" y="160" width="100" height="26" as="alternateBounds" />
          </mxGeometry>
        </mxCell>
        <mxCell id="rxmNv4YafPhZ3EjZMaK0-11" value="-CodDente: INT&#xa;-CodTratamento: INT&#xa;-Dente: INT" style="text;strokeColor=none;fillColor=none;align=left;verticalAlign=top;spacingLeft=4;spacingRight=4;overflow=hidden;rotatable=0;points=[[0,0.5],[1,0.5]];portConstraint=eastwest;" parent="rxmNv4YafPhZ3EjZMaK0-10" vertex="1">
          <mxGeometry y="26" width="160" height="54" as="geometry" />
        </mxCell>
        <mxCell id="rxmNv4YafPhZ3EjZMaK0-12" value="" style="line;strokeWidth=1;fillColor=none;align=left;verticalAlign=middle;spacingTop=-1;spacingLeft=3;spacingRight=3;rotatable=0;labelPosition=right;points=[];portConstraint=eastwest;" parent="rxmNv4YafPhZ3EjZMaK0-10" vertex="1">
          <mxGeometry y="80" width="160" height="8" as="geometry" />
        </mxCell>
        <mxCell id="rxmNv4YafPhZ3EjZMaK0-13" value="- salvarDente()" style="text;strokeColor=none;fillColor=none;align=left;verticalAlign=top;spacingLeft=4;spacingRight=4;overflow=hidden;rotatable=0;points=[[0,0.5],[1,0.5]];portConstraint=eastwest;" parent="rxmNv4YafPhZ3EjZMaK0-10" vertex="1">
          <mxGeometry y="88" width="160" height="26" as="geometry" />
        </mxCell>
        <mxCell id="rxmNv4YafPhZ3EjZMaK0-14" value="TRATAMENTO" style="swimlane;fontStyle=1;align=center;verticalAlign=top;childLayout=stackLayout;horizontal=1;startSize=26;horizontalStack=0;resizeParent=1;resizeParentMax=0;resizeLast=0;collapsible=1;marginBottom=0;" parent="WIyWlLk6GJQsqaUBKTNV-1" vertex="1">
          <mxGeometry x="200" y="340" width="160" height="154" as="geometry" />
        </mxCell>
        <mxCell id="rxmNv4YafPhZ3EjZMaK0-15" value="-CodTratamento: INT&#xa;-CodProcedimento: INT&#xa;-CodPaciente: INT&#xa;-InicioTratamento: DATE&#xa;-TerminoTratamento: DATE&#xa;-Status: INT" style="text;strokeColor=none;fillColor=none;align=left;verticalAlign=top;spacingLeft=4;spacingRight=4;overflow=hidden;rotatable=0;points=[[0,0.5],[1,0.5]];portConstraint=eastwest;" parent="rxmNv4YafPhZ3EjZMaK0-14" vertex="1">
          <mxGeometry y="26" width="160" height="94" as="geometry" />
        </mxCell>
        <mxCell id="rxmNv4YafPhZ3EjZMaK0-16" value="" style="line;strokeWidth=1;fillColor=none;align=left;verticalAlign=middle;spacingTop=-1;spacingLeft=3;spacingRight=3;rotatable=0;labelPosition=right;points=[];portConstraint=eastwest;" parent="rxmNv4YafPhZ3EjZMaK0-14" vertex="1">
          <mxGeometry y="120" width="160" height="8" as="geometry" />
        </mxCell>
        <mxCell id="rxmNv4YafPhZ3EjZMaK0-17" value="-cadastratTratamento()" style="text;strokeColor=none;fillColor=none;align=left;verticalAlign=top;spacingLeft=4;spacingRight=4;overflow=hidden;rotatable=0;points=[[0,0.5],[1,0.5]];portConstraint=eastwest;" parent="rxmNv4YafPhZ3EjZMaK0-14" vertex="1">
          <mxGeometry y="128" width="160" height="26" as="geometry" />
        </mxCell>
        <mxCell id="rxmNv4YafPhZ3EjZMaK0-22" value="HISTORICO" style="swimlane;fontStyle=1;align=center;verticalAlign=top;childLayout=stackLayout;horizontal=1;startSize=26;horizontalStack=0;resizeParent=1;resizeParentMax=0;resizeLast=0;collapsible=1;marginBottom=0;" parent="WIyWlLk6GJQsqaUBKTNV-1" vertex="1">
          <mxGeometry x="10" y="340" width="160" height="132" as="geometry" />
        </mxCell>
        <mxCell id="rxmNv4YafPhZ3EjZMaK0-23" value="-CodHistorico: INT&#xa;-CodTratamento: INT&#xa;-DataHora: DATETIME&#xa;-Observacoes: STRING" style="text;strokeColor=none;fillColor=none;align=left;verticalAlign=top;spacingLeft=4;spacingRight=4;overflow=hidden;rotatable=0;points=[[0,0.5],[1,0.5]];portConstraint=eastwest;" parent="rxmNv4YafPhZ3EjZMaK0-22" vertex="1">
          <mxGeometry y="26" width="160" height="64" as="geometry" />
        </mxCell>
        <mxCell id="rxmNv4YafPhZ3EjZMaK0-24" value="" style="line;strokeWidth=1;fillColor=none;align=left;verticalAlign=middle;spacingTop=-1;spacingLeft=3;spacingRight=3;rotatable=0;labelPosition=right;points=[];portConstraint=eastwest;" parent="rxmNv4YafPhZ3EjZMaK0-22" vertex="1">
          <mxGeometry y="90" width="160" height="8" as="geometry" />
        </mxCell>
        <mxCell id="rxmNv4YafPhZ3EjZMaK0-25" value="- cadastrarHistorico()" style="text;strokeColor=none;fillColor=none;align=left;verticalAlign=top;spacingLeft=4;spacingRight=4;overflow=hidden;rotatable=0;points=[[0,0.5],[1,0.5]];portConstraint=eastwest;" parent="rxmNv4YafPhZ3EjZMaK0-22" vertex="1">
          <mxGeometry y="98" width="160" height="34" as="geometry" />
        </mxCell>
        <mxCell id="rxmNv4YafPhZ3EjZMaK0-26" style="edgeStyle=orthogonalEdgeStyle;rounded=0;orthogonalLoop=1;jettySize=auto;html=1;" parent="WIyWlLk6GJQsqaUBKTNV-1" source="rxmNv4YafPhZ3EjZMaK0-15" target="rxmNv4YafPhZ3EjZMaK0-23" edge="1">
          <mxGeometry relative="1" as="geometry" />
        </mxCell>
        <mxCell id="rxmNv4YafPhZ3EjZMaK0-31" style="edgeStyle=orthogonalEdgeStyle;rounded=0;orthogonalLoop=1;jettySize=auto;html=1;entryX=0;entryY=0.5;entryDx=0;entryDy=0;" parent="WIyWlLk6GJQsqaUBKTNV-1" source="rxmNv4YafPhZ3EjZMaK0-15" target="rxmNv4YafPhZ3EjZMaK0-28" edge="1">
          <mxGeometry relative="1" as="geometry" />
        </mxCell>
        <mxCell id="rxmNv4YafPhZ3EjZMaK0-36" style="edgeStyle=orthogonalEdgeStyle;rounded=0;orthogonalLoop=1;jettySize=auto;html=1;entryX=1;entryY=0.5;entryDx=0;entryDy=0;" parent="WIyWlLk6GJQsqaUBKTNV-1" source="rxmNv4YafPhZ3EjZMaK0-33" target="rxmNv4YafPhZ3EjZMaK0-28" edge="1">
          <mxGeometry relative="1" as="geometry" />
        </mxCell>
        <mxCell id="rxmNv4YafPhZ3EjZMaK0-45" style="edgeStyle=orthogonalEdgeStyle;rounded=0;orthogonalLoop=1;jettySize=auto;html=1;entryX=0.499;entryY=0.995;entryDx=0;entryDy=0;entryPerimeter=0;" parent="WIyWlLk6GJQsqaUBKTNV-1" source="rxmNv4YafPhZ3EjZMaK0-41" target="rxmNv4YafPhZ3EjZMaK0-30" edge="1">
          <mxGeometry relative="1" as="geometry" />
        </mxCell>
        <mxCell id="rxmNv4YafPhZ3EjZMaK0-41" value="CONSULTA" style="swimlane;fontStyle=1;align=center;verticalAlign=top;childLayout=stackLayout;horizontal=1;startSize=26;horizontalStack=0;resizeParent=1;resizeParentMax=0;resizeLast=0;collapsible=1;marginBottom=0;" parent="WIyWlLk6GJQsqaUBKTNV-1" vertex="1" collapsed="1">
          <mxGeometry x="460" y="550" width="100" height="26" as="geometry">
            <mxRectangle x="460" y="550" width="160" height="154" as="alternateBounds" />
          </mxGeometry>
        </mxCell>
        <mxCell id="rxmNv4YafPhZ3EjZMaK0-42" value="-CodConsulta: INT&#xa;-CodPaciente: INT&#xa;-CodProcedimento: INT&#xa;-DataConsulta: DATE&#xa;-HorarioInicio: TIME&#xa;-HorioFim: TIME" style="text;strokeColor=none;fillColor=none;align=left;verticalAlign=top;spacingLeft=4;spacingRight=4;overflow=hidden;rotatable=0;points=[[0,0.5],[1,0.5]];portConstraint=eastwest;" parent="rxmNv4YafPhZ3EjZMaK0-41" vertex="1">
          <mxGeometry y="26" width="100" height="94" as="geometry" />
        </mxCell>
        <mxCell id="rxmNv4YafPhZ3EjZMaK0-43" value="" style="line;strokeWidth=1;fillColor=none;align=left;verticalAlign=middle;spacingTop=-1;spacingLeft=3;spacingRight=3;rotatable=0;labelPosition=right;points=[];portConstraint=eastwest;" parent="rxmNv4YafPhZ3EjZMaK0-41" vertex="1">
          <mxGeometry y="120" width="100" height="8" as="geometry" />
        </mxCell>
        <mxCell id="rxmNv4YafPhZ3EjZMaK0-44" value="- agendarConsulta()" style="text;strokeColor=none;fillColor=none;align=left;verticalAlign=top;spacingLeft=4;spacingRight=4;overflow=hidden;rotatable=0;points=[[0,0.5],[1,0.5]];portConstraint=eastwest;" parent="rxmNv4YafPhZ3EjZMaK0-41" vertex="1">
          <mxGeometry y="128" width="100" height="26" as="geometry" />
        </mxCell>
        <mxCell id="rxmNv4YafPhZ3EjZMaK0-51" style="edgeStyle=orthogonalEdgeStyle;rounded=0;orthogonalLoop=1;jettySize=auto;html=1;entryX=0.501;entryY=0.984;entryDx=0;entryDy=0;entryPerimeter=0;" parent="WIyWlLk6GJQsqaUBKTNV-1" source="rxmNv4YafPhZ3EjZMaK0-46" target="rxmNv4YafPhZ3EjZMaK0-17" edge="1">
          <mxGeometry relative="1" as="geometry" />
        </mxCell>
        <mxCell id="rxmNv4YafPhZ3EjZMaK0-46" value="PROCEDIMENTO" style="swimlane;fontStyle=1;align=center;verticalAlign=top;childLayout=stackLayout;horizontal=1;startSize=26;horizontalStack=0;resizeParent=1;resizeParentMax=0;resizeLast=0;collapsible=1;marginBottom=0;" parent="WIyWlLk6GJQsqaUBKTNV-1" vertex="1">
          <mxGeometry x="200" y="570" width="160" height="104" as="geometry" />
        </mxCell>
        <mxCell id="rxmNv4YafPhZ3EjZMaK0-47" value="-CodProcedimento: INT&#xa;-NomeProcedimento: INT" style="text;strokeColor=none;fillColor=none;align=left;verticalAlign=top;spacingLeft=4;spacingRight=4;overflow=hidden;rotatable=0;points=[[0,0.5],[1,0.5]];portConstraint=eastwest;" parent="rxmNv4YafPhZ3EjZMaK0-46" vertex="1">
          <mxGeometry y="26" width="160" height="44" as="geometry" />
        </mxCell>
        <mxCell id="rxmNv4YafPhZ3EjZMaK0-48" value="" style="line;strokeWidth=1;fillColor=none;align=left;verticalAlign=middle;spacingTop=-1;spacingLeft=3;spacingRight=3;rotatable=0;labelPosition=right;points=[];portConstraint=eastwest;" parent="rxmNv4YafPhZ3EjZMaK0-46" vertex="1">
          <mxGeometry y="70" width="160" height="8" as="geometry" />
        </mxCell>
        <mxCell id="rxmNv4YafPhZ3EjZMaK0-49" value="-CadastrarProcedimento()" style="text;strokeColor=none;fillColor=none;align=left;verticalAlign=top;spacingLeft=4;spacingRight=4;overflow=hidden;rotatable=0;points=[[0,0.5],[1,0.5]];portConstraint=eastwest;" parent="rxmNv4YafPhZ3EjZMaK0-46" vertex="1">
          <mxGeometry y="78" width="160" height="26" as="geometry" />
        </mxCell>
        <mxCell id="rxmNv4YafPhZ3EjZMaK0-50" style="edgeStyle=orthogonalEdgeStyle;rounded=0;orthogonalLoop=1;jettySize=auto;html=1;entryX=0;entryY=0.5;entryDx=0;entryDy=0;" parent="WIyWlLk6GJQsqaUBKTNV-1" source="rxmNv4YafPhZ3EjZMaK0-47" target="rxmNv4YafPhZ3EjZMaK0-42" edge="1">
          <mxGeometry relative="1" as="geometry" />
        </mxCell>
        <mxCell id="rxmNv4YafPhZ3EjZMaK0-32" value="ANAMNESE" style="swimlane;fontStyle=1;align=center;verticalAlign=top;childLayout=stackLayout;horizontal=1;startSize=26;horizontalStack=0;resizeParent=1;resizeParentMax=0;resizeLast=0;collapsible=1;marginBottom=0;" parent="WIyWlLk6GJQsqaUBKTNV-1" vertex="1">
          <mxGeometry x="1010" y="138" width="160" height="124" as="geometry">
            <mxRectangle x="1010" y="138" width="100" height="26" as="alternateBounds" />
          </mxGeometry>
        </mxCell>
        <mxCell id="rxmNv4YafPhZ3EjZMaK0-33" value="-CodAnamnese: INT&#xa;-CodPaciente: INT&#xa;-NomeDoenca: String&#xa;-Doenca: INT" style="text;strokeColor=none;fillColor=none;align=left;verticalAlign=top;spacingLeft=4;spacingRight=4;overflow=hidden;rotatable=0;points=[[0,0.5],[1,0.5]];portConstraint=eastwest;" parent="rxmNv4YafPhZ3EjZMaK0-32" vertex="1">
          <mxGeometry y="26" width="160" height="64" as="geometry" />
        </mxCell>
        <mxCell id="rxmNv4YafPhZ3EjZMaK0-34" value="" style="line;strokeWidth=1;fillColor=none;align=left;verticalAlign=middle;spacingTop=-1;spacingLeft=3;spacingRight=3;rotatable=0;labelPosition=right;points=[];portConstraint=eastwest;" parent="rxmNv4YafPhZ3EjZMaK0-32" vertex="1">
          <mxGeometry y="90" width="160" height="8" as="geometry" />
        </mxCell>
        <mxCell id="rxmNv4YafPhZ3EjZMaK0-35" value="- cadastrarAnamnese:()&#xa;" style="text;strokeColor=none;fillColor=none;align=left;verticalAlign=top;spacingLeft=4;spacingRight=4;overflow=hidden;rotatable=0;points=[[0,0.5],[1,0.5]];portConstraint=eastwest;" parent="rxmNv4YafPhZ3EjZMaK0-32" vertex="1">
          <mxGeometry y="98" width="160" height="26" as="geometry" />
        </mxCell>
        <mxCell id="rxmNv4YafPhZ3EjZMaK0-27" value="PACIENTE" style="swimlane;fontStyle=1;align=center;verticalAlign=top;childLayout=stackLayout;horizontal=1;startSize=26;horizontalStack=0;resizeParent=1;resizeParentMax=0;resizeLast=0;collapsible=1;marginBottom=0;" parent="WIyWlLk6GJQsqaUBKTNV-1" vertex="1">
          <mxGeometry x="610" y="138" width="240" height="350" as="geometry">
            <mxRectangle x="610" y="138" width="90" height="26" as="alternateBounds" />
          </mxGeometry>
        </mxCell>
        <mxCell id="rxmNv4YafPhZ3EjZMaK0-28" value="- codPaciente: INT&#xa;- nome: String&#xa;- cpf: INT&#xa;- rg: INT&#xa;- nascimento: DATE&#xa;- genero: Bolean&#xa;- email: String&#xa;- celular: INT&#xa;- telefone: INT&#xa;- cep: INT&#xa;- endereco: String&#xa;- numero: INT&#xa;- bairro: String&#xa;- complemento: String&#xa;- cidade: String&#xa;- estado: String&#xa;- status: INT" style="text;strokeColor=none;fillColor=none;align=left;verticalAlign=top;spacingLeft=4;spacingRight=4;overflow=hidden;rotatable=0;points=[[0,0.5],[1,0.5]];portConstraint=eastwest;" parent="rxmNv4YafPhZ3EjZMaK0-27" vertex="1">
          <mxGeometry y="26" width="240" height="244" as="geometry" />
        </mxCell>
        <mxCell id="rxmNv4YafPhZ3EjZMaK0-29" value="" style="line;strokeWidth=1;fillColor=none;align=left;verticalAlign=middle;spacingTop=-1;spacingLeft=3;spacingRight=3;rotatable=0;labelPosition=right;points=[];portConstraint=eastwest;" parent="rxmNv4YafPhZ3EjZMaK0-27" vertex="1">
          <mxGeometry y="270" width="240" height="8" as="geometry" />
        </mxCell>
        <mxCell id="rxmNv4YafPhZ3EjZMaK0-30" value="+ cadastrarPaciente()&#xa;+ pesquisarPaciente()&#xa;+ alterarPaciente()&#xa;+ inativarPaciente()" style="text;strokeColor=none;fillColor=none;align=left;verticalAlign=top;spacingLeft=4;spacingRight=4;overflow=hidden;rotatable=0;points=[[0,0.5],[1,0.5]];portConstraint=eastwest;" parent="rxmNv4YafPhZ3EjZMaK0-27" vertex="1">
          <mxGeometry y="278" width="240" height="72" as="geometry" />
        </mxCell>
        <mxCell id="rxmNv4YafPhZ3EjZMaK0-37" value="USUARIO" style="swimlane;fontStyle=1;align=center;verticalAlign=top;childLayout=stackLayout;horizontal=1;startSize=26;horizontalStack=0;resizeParent=1;resizeParentMax=0;resizeLast=0;collapsible=1;marginBottom=0;" parent="WIyWlLk6GJQsqaUBKTNV-1" vertex="1" collapsed="1">
          <mxGeometry x="1020" y="472" width="90" height="26" as="geometry">
            <mxRectangle x="650" y="372" width="160" height="210" as="alternateBounds" />
          </mxGeometry>
        </mxCell>
        <mxCell id="rxmNv4YafPhZ3EjZMaK0-38" value="-CodUsuario: INT&#xa;-Email: String&#xa;-Senha: INT&#xa;-Nome: String&#xa;-TipoEnum: String&#xa;-CPF: INT&#xa;-Telefone: INT" style="text;strokeColor=none;fillColor=none;align=left;verticalAlign=top;spacingLeft=4;spacingRight=4;overflow=hidden;rotatable=0;points=[[0,0.5],[1,0.5]];portConstraint=eastwest;" parent="rxmNv4YafPhZ3EjZMaK0-37" vertex="1">
          <mxGeometry y="26" width="90" height="104" as="geometry" />
        </mxCell>
        <mxCell id="rxmNv4YafPhZ3EjZMaK0-39" value="" style="line;strokeWidth=1;fillColor=none;align=left;verticalAlign=middle;spacingTop=-1;spacingLeft=3;spacingRight=3;rotatable=0;labelPosition=right;points=[];portConstraint=eastwest;" parent="rxmNv4YafPhZ3EjZMaK0-37" vertex="1">
          <mxGeometry y="130" width="90" height="8" as="geometry" />
        </mxCell>
        <mxCell id="rxmNv4YafPhZ3EjZMaK0-40" value="-CadastrarUsuario()&#xa;-AlterarUsuario()&#xa;-ConsultarUsuario()&#xa;-ExcluirUsuario()" style="text;strokeColor=none;fillColor=none;align=left;verticalAlign=top;spacingLeft=4;spacingRight=4;overflow=hidden;rotatable=0;points=[[0,0.5],[1,0.5]];portConstraint=eastwest;" parent="rxmNv4YafPhZ3EjZMaK0-37" vertex="1">
          <mxGeometry y="138" width="90" height="72" as="geometry" />
        </mxCell>
      </root>
    </mxGraphModel>
  </diagram>
</mxfile>
